<?xml version="1.0" encoding="UTF-8"?>
<svg width="643px" height="265px" viewBox="0 0 643 265" version="1.1" xmlns="http://www.w3.org/2000/svg" xmlns:xlink="http://www.w3.org/1999/xlink">
    <!-- Generator: Sketch 52.5 (67469) - http://www.bohemiancoding.com/sketch -->
    <title>Group 3</title>
    <desc>Created with Sketch.</desc>
    <defs>
        <radialGradient cx="66.0761458%" cy="33.2137133%" fx="66.0761458%" fy="33.2137133%" r="60.8691814%" gradientTransform="translate(0.660761,0.332137),rotate(134.834211),scale(1.000000,0.978112),translate(-0.660761,-0.332137)" id="radialGradient-1">
            <stop stop-color="#E4E7ED" offset="0%"></stop>
            <stop stop-color="#8891A5" offset="100%"></stop>
        </radialGradient>
        <path d="M119,238 C148.887086,238 176.20082,226.982173 197.10107,208.786651 C197.10107,208.562449 197.10107,205.633565 197.10107,200 L171,190.150001 L199,184 L210,173 L189,159 L213,156.150001 L201,144 L206,134 L215,134 L215,120 L225,124 C233.513087,120.666667 237.84642,119 238,119 C238,53.2781148 184.721885,0 119,0 C53.2781148,0 0,53.2781148 0,119 C0,184.721885 53.2781148,238 119,238 Z" id="path-2"></path>
        <filter x="-6.7%" y="-6.7%" width="113.4%" height="113.4%" filterUnits="objectBoundingBox" id="filter-3">
            <feGaussianBlur stdDeviation="16" in="SourceAlpha" result="shadowBlurInner1"></feGaussianBlur>
            <feOffset dx="0" dy="0" in="shadowBlurInner1" result="shadowOffsetInner1"></feOffset>
            <feComposite in="shadowOffsetInner1" in2="SourceAlpha" operator="arithmetic" k2="-1" k3="1" result="shadowInnerInner1"></feComposite>
            <feColorMatrix values="0 0 0 0 0.905882353   0 0 0 0 0.91372549   0 0 0 0 0.937254902  0 0 0 1 0" type="matrix" in="shadowInnerInner1"></feColorMatrix>
        </filter>
        <radialGradient cx="66.0761458%" cy="33.2137133%" fx="66.0761458%" fy="33.2137133%" r="60.8691814%" gradientTransform="translate(0.660761,0.332137),rotate(134.834211),scale(1.000000,0.978112),translate(-0.660761,-0.332137)" id="radialGradient-4">
            <stop stop-color="#FCFCFC" offset="0%"></stop>
            <stop stop-color="#C6CCD9" offset="100%"></stop>
        </radialGradient>
        <path d="M119,238 C53.2781148,238 0,184.721885 0,119 C0,53.2781148 53.2781148,0 119,0 C184.721885,0 238,53.2781148 238,119 C237.84642,119 234.061402,117.746213 226.644945,115.238639 L213,88 L215,107 L189,100 L184,90 L179,129 L166,143.804688 L139.850543,128 L124,129 L129,116 L122,129 L84,130.70274 L139.850543,132.80326 L163,150 L173,166 L160,168 L133,208.786651 L160,173 L181,187 L181,204 C191.734047,206.966899 197.10107,208.562449 197.10107,208.786651 C176.20082,226.982173 148.887086,238 119,238 Z" id="path-5"></path>
        <filter x="-6.7%" y="-6.7%" width="113.4%" height="113.4%" filterUnits="objectBoundingBox" id="filter-7">
            <feGaussianBlur stdDeviation="16" in="SourceAlpha" result="shadowBlurInner1"></feGaussianBlur>
            <feOffset dx="0" dy="0" in="shadowBlurInner1" result="shadowOffsetInner1"></feOffset>
            <feComposite in="shadowOffsetInner1" in2="SourceAlpha" operator="arithmetic" k2="-1" k3="1" result="shadowInnerInner1"></feComposite>
            <feColorMatrix values="0 0 0 0 0.905882353   0 0 0 0 0.91372549   0 0 0 0 0.937254902  0 0 0 1 0" type="matrix" in="shadowInnerInner1"></feColorMatrix>
        </filter>
        <linearGradient x1="13.9070877%" y1="77.7051716%" x2="100%" y2="22.6213922%" id="linearGradient-8">
            <stop stop-color="#FCFCFC" offset="0%"></stop>
            <stop stop-color="#C6CCD9" offset="100%"></stop>
        </linearGradient>
        <circle id="path-9" cx="454" cy="11" r="11"></circle>
        <filter x="-4.5%" y="-4.5%" width="109.1%" height="109.1%" filterUnits="objectBoundingBox" id="filter-10">
            <feGaussianBlur stdDeviation="1" in="SourceAlpha" result="shadowBlurInner1"></feGaussianBlur>
            <feOffset dx="0" dy="0" in="shadowBlurInner1" result="shadowOffsetInner1"></feOffset>
            <feComposite in="shadowOffsetInner1" in2="SourceAlpha" operator="arithmetic" k2="-1" k3="1" result="shadowInnerInner1"></feComposite>
            <feColorMatrix values="0 0 0 0 0.905882353   0 0 0 0 0.91372549   0 0 0 0 0.937254902  0 0 0 1 0" type="matrix" in="shadowInnerInner1"></feColorMatrix>
        </filter>
        <circle id="path-11" cx="14" cy="210" r="14"></circle>
        <filter x="-3.6%" y="-3.6%" width="107.1%" height="107.1%" filterUnits="objectBoundingBox" id="filter-12">
            <feGaussianBlur stdDeviation="1" in="SourceAlpha" result="shadowBlurInner1"></feGaussianBlur>
            <feOffset dx="0" dy="0" in="shadowBlurInner1" result="shadowOffsetInner1"></feOffset>
            <feComposite in="shadowOffsetInner1" in2="SourceAlpha" operator="arithmetic" k2="-1" k3="1" result="shadowInnerInner1"></feComposite>
            <feColorMatrix values="0 0 0 0 0.905882353   0 0 0 0 0.91372549   0 0 0 0 0.937254902  0 0 0 1 0" type="matrix" in="shadowInnerInner1"></feColorMatrix>
        </filter>
    </defs>
    <g id="首页" stroke="none" stroke-width="1" fill="none" fill-rule="evenodd">
        <g id="404" transform="translate(-392.000000, -424.000000)">
            <g id="Group-3" transform="translate(392.000000, 424.000000)">
                <g id="Group-2" transform="translate(335.000000, 141.000000) rotate(-5.000000) translate(-335.000000, -141.000000) translate(216.000000, 22.000000)">
                    <g id="Oval-Copy-6" fill-rule="nonzero">
                        <use fill="url(#radialGradient-1)" xlink:href="#path-2"></use>
                        <use fill="black" fill-opacity="1" filter="url(#filter-3)" xlink:href="#path-2"></use>
                    </g>
                    <mask id="mask-6" fill="white">
                        <use xlink:href="#path-5"></use>
                    </mask>
                    <g id="Oval-Copy-8" fill-rule="nonzero">
                        <use fill="url(#radialGradient-4)" xlink:href="#path-5"></use>
                        <use fill="black" fill-opacity="1" filter="url(#filter-7)" xlink:href="#path-5"></use>
                    </g>
                    <circle id="Oval-Copy" fill="url(#linearGradient-8)" fill-rule="nonzero" mask="url(#mask-6)" cx="42" cy="94" r="20"></circle>
                    <circle id="Oval-Copy-3" fill="url(#linearGradient-8)" fill-rule="nonzero" mask="url(#mask-6)" cx="129.5" cy="183.5" r="10.5"></circle>
                    <circle id="Oval-Copy-4" fill="url(#linearGradient-8)" fill-rule="nonzero" mask="url(#mask-6)" cx="149.5" cy="35.5" r="49.5"></circle>
                </g>
                <g id="Oval-Copy-2" opacity="0.50155785" fill-rule="nonzero">
                    <use fill="url(#radialGradient-4)" xlink:href="#path-9"></use>
                    <use fill="black" fill-opacity="1" filter="url(#filter-10)" xlink:href="#path-9"></use>
                </g>
                <g id="Oval-Copy-5" fill-rule="nonzero">
                    <use fill="url(#radialGradient-4)" xlink:href="#path-11"></use>
                    <use fill="black" fill-opacity="1" filter="url(#filter-12)" xlink:href="#path-11"></use>
                </g>
                <path d="M159.117925,177.163462 L189,177.163462 L189,209.038462 L159.117925,209.038462 L159.117925,262 L119,262 L119,209.038462 L15.1556604,209.038462 L14,184.846154 L117.679245,24 L159.117925,24 L159.117925,177.163462 Z M56.1686747,176.777293 L119.421687,176.777293 L119.421687,78.0436681 L116.433355,83.2401747 L56.1686747,176.777293 Z" id="4" fill="#EDEFF3"></path>
                <path d="M613.117925,177.163462 L643,177.163462 L643,209.038462 L613.117925,209.038462 L613.117925,262 L573,262 L573,209.038462 L469.15566,209.038462 L468,184.846154 L571.679245,24 L613.117925,24 L613.117925,177.163462 Z M510.168675,176.777293 L573.421687,176.777293 L573.421687,78.0436681 L570.433355,83.2401747 L510.168675,176.777293 Z" id="4-copy" fill="#EDEFF3"></path>
                <polygon id="Path-4" fill="#B6BCC9" fill-rule="nonzero" points="440 181 448 179 444 184"></polygon>
                <polygon id="Path-4-Copy-2" fill="#B6BCC9" fill-rule="nonzero" points="373 251 381 249 377 254"></polygon>
                <polygon id="Path-4-Copy" fill="#B6BCC9" fill-rule="nonzero" points="418 237 424 236 429 240 419 243 421 240"></polygon>
                <polygon id="Path-5" fill="#B6BCC9" fill-rule="nonzero" points="476.78125 182 451.78125 191 484 195"></polygon>
                <polygon id="Path-5-Copy" fill="#B6BCC9" fill-rule="nonzero" points="503.5 150 491 150 496.5 161 503.5 157"></polygon>
                <polygon id="Path-5-Copy-2" fill="#E5E8ED" fill-rule="nonzero" points="420 149 413 145 406 144 411.5 155 414 151"></polygon>
                <polygon id="Path-5-Copy-3" fill="#E5E8ED" fill-rule="nonzero" points="402 190 395 190 400.5 201 403 197"></polygon>
                <polygon id="Path-5-Copy-4" fill="#E5E8ED" fill-rule="nonzero" points="406 158 409 163 409 160"></polygon>
                <polygon id="Path-5-Copy-5" fill="#E5E8ED" fill-rule="nonzero" points="421 146 424.5 149 427 146"></polygon>
                <polygon id="Path-6" fill="#B6BCC9" fill-rule="nonzero" points="437 215 439 223 446.261512 227.763746 447 224 452 222 444 220.150001"></polygon>
                <polygon id="Path-6-Copy" fill="#B6BCC9" fill-rule="nonzero" points="450 252 458 265 460.5 259 468 253 452 243"></polygon>
                <polygon id="Path-7" fill="#B6BCC9" fill-rule="nonzero" points="448 212 451.157895 208 454 210"></polygon>
            </g>
        </g>
    </g>
</svg>