<?xml version="1.0" encoding="UTF-8"?>
<svg width="8px" height="11px" viewBox="0 0 8 11" version="1.1" xmlns="http://www.w3.org/2000/svg" xmlns:xlink="http://www.w3.org/1999/xlink">
    <!-- Generator: Sketch 52.5 (67469) - http://www.bohemiancoding.com/sketch -->
    <title>形状 copy</title>
    <desc>Created with Sketch.</desc>
    <g id="-" stroke="none" stroke-width="1" fill="none" fill-rule="evenodd">
        <g id="品牌1-copy" transform="translate(-313.000000, -125.000000)" fill="#FF5E41" fill-rule="nonzero">
            <path d="M318.652672,125.042552 C319.020788,125.180176 319.214228,125.60889 319.084732,126.000111 C319.013649,126.214859 318.854739,126.383744 318.652672,126.459289 L318.652672,126.501841 L315.826385,126.501841 L315.826385,126.459289 C315.458269,126.596914 315.054875,126.391332 314.925378,126.000111 C314.795882,125.60889 314.989322,125.180176 315.357438,125.042552 C315.509196,124.985816 315.674628,124.985816 315.826385,125.042552 L315.826385,125 L318.652672,125 L318.652672,125.042552 Z M316.7746,135.887357 L313.066507,131.389846 C312.942622,131.239662 312.996792,131.116511 313.187567,131.116511 L314.573866,131.116511 C314.763053,131.118182 314.917972,130.957119 314.920558,130.756069 L314.920558,127.875034 C314.920558,127.67629 315.076004,127.514591 315.26725,127.514591 L318.73275,127.514591 C318.921937,127.51292 319.076856,127.673984 319.079442,127.875034 L319.079442,130.757069 C319.079442,130.955312 319.234888,131.117511 319.426134,131.117511 L320.812433,131.117511 C321.003208,131.117511 321.057378,131.240162 320.933493,131.390345 L317.2254,135.887362 C317.101514,136.037546 316.898492,136.037546 316.774606,135.887362 L316.7746,135.887357 Z" id="形状-copy" transform="translate(317.000000, 130.500000) scale(1, -1) translate(-317.000000, -130.500000) "></path>
        </g>
    </g>
</svg>