<?xml version="1.0" encoding="UTF-8"?>
<svg width="8px" height="11px" viewBox="0 0 8 11" version="1.1" xmlns="http://www.w3.org/2000/svg" xmlns:xlink="http://www.w3.org/1999/xlink">
    <!-- Generator: Sketch 52.5 (67469) - http://www.bohemiancoding.com/sketch -->
    <title>形状 copy 2</title>
    <desc>Created with Sketch.</desc>
    <g id="-" stroke="none" stroke-width="1" fill="none" fill-rule="evenodd">
        <g id="品牌1-copy" transform="translate(-538.000000, -123.000000)" fill="#3DD49F" fill-rule="nonzero">
            <path d="M543.652672,123.042552 C544.020788,123.180176 544.214228,123.60889 544.084732,124.000111 C544.013649,124.214859 543.854739,124.383744 543.652672,124.459289 L543.652672,124.501841 L540.826385,124.501841 L540.826385,124.459289 C540.458269,124.596914 540.054875,124.391332 539.925378,124.000111 C539.795882,123.60889 539.989322,123.180176 540.357438,123.042552 C540.509196,122.985816 540.674628,122.985816 540.826385,123.042552 L540.826385,123 L543.652672,123 L543.652672,123.042552 Z M541.7746,133.887357 L538.066507,129.389846 C537.942622,129.239662 537.996792,129.116511 538.187567,129.116511 L539.573866,129.116511 C539.763053,129.118182 539.917972,128.957119 539.920558,128.756069 L539.920558,125.875034 C539.920558,125.67629 540.076004,125.514591 540.26725,125.514591 L543.73275,125.514591 C543.921937,125.51292 544.076856,125.673984 544.079442,125.875034 L544.079442,128.757069 C544.079442,128.955312 544.234888,129.117511 544.426134,129.117511 L545.812433,129.117511 C546.003208,129.117511 546.057378,129.240162 545.933493,129.390345 L542.2254,133.887362 C542.101514,134.037546 541.898492,134.037546 541.774606,133.887362 L541.7746,133.887357 Z" id="形状-copy-2"></path>
        </g>
    </g>
</svg>