<?xml version="1.0" encoding="UTF-8"?>
<svg width="14px" height="14px" viewBox="0 0 14 14" version="1.1" xmlns="http://www.w3.org/2000/svg" xmlns:xlink="http://www.w3.org/1999/xlink">
    <!-- Generator: Sketch 52.5 (67469) - http://www.bohemiancoding.com/sketch -->
    <title>形状</title>
    <desc>Created with Sketch.</desc>
    <g id="优惠券" stroke="none" stroke-width="1" fill="none" fill-rule="evenodd">
        <g id="营销中心-copy-5" transform="translate(-328.000000, -110.000000)" fill="#697894" fill-rule="nonzero">
            <g id="形状" transform="translate(328.000000, 110.000000)">
                <path d="M7,0 C10.8664062,0 14,3.13359375 14,7 C14,10.8664062 10.8664062,14 7,14 C3.13359375,14 0,10.8664062 0,7 C0,3.13359375 3.13359375,0 7,0 Z M11.2533203,11.2533203 C11.8070312,10.7009766 12.2404297,10.0570313 12.5439453,9.340625 C12.8570313,8.59960938 13.015625,7.81210938 13.015625,7 C13.015625,6.18789063 12.8570313,5.40039062 12.5425781,4.65800781 C12.2404297,3.94160156 11.8056641,3.29765625 11.2533203,2.7453125 C10.6996094,2.19296875 10.0570313,1.75957031 9.340625,1.45605469 C8.59960938,1.14296875 7.81210938,0.984375 7,0.984375 C6.18789063,0.984375 5.40039062,1.14296875 4.65800781,1.45742188 C3.94160156,1.75957031 3.29765625,2.19433594 2.7453125,2.74667969 C2.19296875,3.30039062 1.75957031,3.94296875 1.45605469,4.659375 C1.14296875,5.40039062 0.984375,6.18789063 0.984375,7 C0.984375,7.81210938 1.14296875,8.59960938 1.45742188,9.34199219 C1.75957031,10.0583984 2.19433594,10.7023438 2.74667969,11.2546875 C3.30039062,11.8070312 3.94296875,12.2404297 4.659375,12.5439453 C5.40039062,12.8570313 6.18789063,13.015625 7,13.015625 C7.81210938,13.015625 8.59960938,12.8570313 9.340625,12.5425781 C10.0570313,12.2404297 10.7009766,11.8056641 11.2533203,11.2533203 Z M8.61601563,9.646875 C8.88808594,9.646875 9.10820313,9.86699219 9.10820313,10.1390625 C9.10820313,10.4111328 8.88808594,10.63125 8.61601563,10.63125 L7.45117188,10.63125 L6.46679688,10.63125 L5.30195313,10.63125 C5.02988281,10.63125 4.80976563,10.4111328 4.80976563,10.1390625 C4.80976563,9.86699219 5.02988281,9.646875 5.30195313,9.646875 L6.46679688,9.646875 L6.46679688,5.35253906 L5.64648438,5.35253906 C5.37441406,5.35253906 5.15429688,5.13242187 5.15429688,4.86035156 C5.15429688,4.58828125 5.37441406,4.36816406 5.64648438,4.36816406 L6.46679688,4.36816406 L6.95898438,4.36816406 C7.23105469,4.36816406 7.45117188,4.58828125 7.45117188,4.86035156 L7.45117188,9.646875 L8.61601563,9.646875 Z M6.46679688,3.01464844 C6.46679688,2.74282079 6.68715672,2.52246094 6.95898438,2.52246094 C7.23081203,2.52246094 7.45117188,2.74282079 7.45117188,3.01464844 C7.45117188,3.28647609 7.23081203,3.50683594 6.95898438,3.50683594 C6.68715672,3.50683594 6.46679688,3.28647609 6.46679688,3.01464844 Z" id="Shape"></path>
            </g>
        </g>
    </g>
</svg>