<?xml version="1.0" encoding="UTF-8"?>
<svg width="18px" height="18px" viewBox="0 0 18 18" version="1.1" xmlns="http://www.w3.org/2000/svg" xmlns:xlink="http://www.w3.org/1999/xlink">
    <!-- Generator: Sketch 52.5 (67469) - http://www.bohemiancoding.com/sketch -->
    <title>分组 6</title>
    <desc>Created with Sketch.</desc>
    <defs>
        <linearGradient x1="50%" y1="3.24333803%" x2="50%" y2="93.2911624%" id="linearGradient-1">
            <stop stop-color="#45D89E" offset="0%"></stop>
            <stop stop-color="#47DAA3" offset="100%"></stop>
        </linearGradient>
    </defs>
    <g id="优惠券" stroke="none" stroke-width="1" fill="none" fill-rule="evenodd">
        <g id="成功" transform="translate(-922.000000, -432.000000)">
            <g id="分组-3" transform="translate(922.000000, 430.000000)">
                <g id="分组-6" transform="translate(0.000000, 2.000000)">
                    <circle id="椭圆形-copy-5" fill="url(#linearGradient-1)" fill-rule="nonzero" cx="9" cy="9" r="9"></circle>
                    <path d="M11.5668498,4 C13.0369903,4 14.2320622,5.12861932 14.2320622,6.52906105 C14.2320622,6.96461273 14.1108456,7.39062678 13.888615,7.77531111 C13.5544922,8.33485196 13.0167875,8.74973878 12.3687446,8.94684976 C12.196244,8.99771711 12.0641489,9.01997158 11.9429322,9.01997158 C11.6585393,9.01997158 11.4347547,8.79265811 11.4347547,8.50017085 C11.4347547,8.20768359 11.6569853,7.98037012 11.9429322,7.98037012 C11.963135,7.98037012 12.0050946,7.98037012 12.0548246,7.95970526 C12.4899613,7.83571609 12.8349625,7.57502092 13.0276659,7.23325592 C13.158207,7.01548008 13.2203694,6.77703938 13.2203694,6.52747144 C13.2203694,5.70723543 12.4806369,5.03324304 11.5761742,5.03324304 C11.2622541,5.03324304 10.9576584,5.11749209 10.6856979,5.27168374 C10.2086016,5.55463338 9.92265459,6.02038755 9.92265459,6.53065065 L9.92265459,10.8750402 C9.92265459,11.7556812 9.44555825,12.5663796 8.65454185,13.0225962 C8.22872948,13.2705745 7.75163314,13.3945637 7.26521245,13.3945637 C5.796626,13.3961533 4.6,12.2675339 4.6,10.8670922 C4.6,10.4315405 4.72121666,10.0055265 4.9434472,9.62084215 C5.27757004,9.0613013 5.81527471,8.64641448 6.46331762,8.4493035 C6.64669667,8.39843615 6.76791333,8.37618168 6.88912999,8.37618168 C7.17352292,8.37618168 7.39730752,8.60349515 7.39730752,8.89598241 C7.39730752,9.18688007 7.17507698,9.41578314 6.88912999,9.41578314 C6.86892721,9.41578314 6.8269676,9.41578314 6.77723769,9.436448 C6.34210096,9.5699748 5.9970997,9.83066996 5.80439629,10.1628973 C5.67385528,10.3806732 5.61169289,10.6191139 5.61169289,10.8686818 C5.61169289,11.6889178 6.35142532,12.3629102 7.26521245,12.3629102 C7.57913251,12.3629102 7.88372822,12.2786612 8.15568867,12.1244695 C8.63278501,11.8431095 8.91562389,11.3773553 8.91562389,10.8686818 L8.91562389,6.53224025 C8.91562389,5.65159926 9.39116616,4.84090088 10.1837366,4.38468433 C10.6033328,4.12716837 11.078875,4 11.5668498,4 Z" id="路径" fill="#FFFFFF"></path>
                </g>
            </g>
        </g>
    </g>
</svg>