<?xml version="1.0" encoding="UTF-8"?>
<svg width="16px" height="16px" viewBox="0 0 16 16" version="1.1" xmlns="http://www.w3.org/2000/svg" xmlns:xlink="http://www.w3.org/1999/xlink">
    <!-- Generator: Sketch 52.5 (67469) - http://www.bohemiancoding.com/sketch -->
    <title>注册人数 copy 3</title>
    <desc>Created with Sketch.</desc>
    <g id="优惠券" stroke="none" stroke-width="1" fill="none" fill-rule="evenodd">
        <g id="营销中心-copy-5" transform="translate(-1036.000000, -165.000000)">
            <g id="营销支出-copy" transform="translate(1036.000000, 165.000000)">
                <circle id="椭圆形-copy-3" fill="#798AFF" fill-rule="evenodd" cx="8" cy="8" r="8"></circle>
                <path d="M3.33333333,6.66666667 L3.33333333,5 C3.33333333,4.44771525 3.78104858,4 4.33333333,4 L11.6666667,4 C12.2189514,4 12.6666667,4.44771525 12.6666667,5 L12.6666667,6.66666667 C11.930287,6.66666667 11.3333333,7.26362033 11.3333333,8 C11.3333333,8.73637967 11.930287,9.33333333 12.6666667,9.33333333 L12.6666667,11 C12.6666667,11.5522847 12.2189514,12 11.6666667,12 L4.33333333,12 C3.78104858,12 3.33333333,11.5522847 3.33333333,11 L3.33333333,9.33333333 C4.069713,9.33333333 4.66666667,8.73637967 4.66666667,8 C4.66666667,7.26362033 4.069713,6.66666667 3.33333333,6.66666667 Z" id="合并形状" stroke="#FFFFFF" stroke-width="1.2" stroke-linecap="round" stroke-linejoin="round" fill-rule="nonzero"></path>
            </g>
        </g>
    </g>
</svg>