<?xml version="1.0" encoding="UTF-8"?>
<svg width="16px" height="16px" viewBox="0 0 16 16" version="1.1" xmlns="http://www.w3.org/2000/svg" xmlns:xlink="http://www.w3.org/1999/xlink">
    <!-- Generator: Sketch 52.5 (67469) - http://www.bohemiancoding.com/sketch -->
    <title>注册人数 copy 2</title>
    <desc>Created with Sketch.</desc>
    <g id="优惠券" stroke="none" stroke-width="1" fill="none" fill-rule="evenodd">
        <g id="营销中心-copy-5" transform="translate(-798.000000, -165.000000)">
            <g id="订单总金额-copy" transform="translate(798.000000, 165.000000)">
                <circle id="椭圆形-copy-2" fill="#FFB946" cx="8" cy="8" r="8"></circle>
                <g id="分组-6" stroke-width="1" transform="translate(4.000000, 3.333333)" fill="#FFFFFF">
                    <path d="M3.38443654,5.75387432 L1.20567533,5.75387432 C0.865700773,5.75387432 0.590163934,6.02750251 0.590163934,6.36495799 C0.590163934,6.7024755 0.865700773,6.9761037 1.20567533,6.9761037 L3.38443654,6.9761037 L3.38443654,8.90804201 C3.38443654,9.24555951 3.65997338,9.51912568 3.99994793,9.51912568 C4.33994331,9.51912568 4.61548015,9.24555951 4.61548015,8.90804201 L4.61548015,6.9761037 L6.79422054,6.9761037 C7.13421592,6.9761037 7.40983607,6.7024755 7.40983607,6.36495799 C7.40983607,6.02750251 7.13421592,5.75387432 6.79422054,5.75387432 L4.61548015,5.75387432 L4.61548015,4.56855186 C4.61816679,4.52736497 4.61402229,4.48609537 4.60319242,4.4462731 L6.79422054,4.4462731 C7.01421265,4.4462731 7.21735599,4.32980433 7.32734163,4.1407416 C7.43732727,3.95165819 7.43732727,3.71865863 7.32734163,3.52957522 C7.21735599,3.34057451 7.01421265,3.22404372 6.79422054,3.22404372 L1.21787976,3.22404372 C0.877988508,3.22404372 0.602368363,3.49767191 0.602368363,3.83518942 C0.602368363,4.1726449 0.877988508,4.4462731 1.21787976,4.4462731 L3.4089287,4.4462731 C3.39882777,4.48617807 3.39468326,4.52736497 3.39672428,4.56855186 L3.39672428,5.75387432 L3.38443654,5.75387432 Z" id="Fill-3"></path>
                    <path d="M2.27382754,2.52248796 C2.52181286,2.76159242 2.91561302,2.75793059 3.15919132,2.5143553 C3.40276961,2.27075872 3.40634632,1.87698469 3.16734537,1.62900244 L1.80836541,0.269954077 C1.64977659,0.105363518 1.41467169,0.0392590449 1.193533,0.0970605409 C0.972394316,0.154862037 0.799668968,0.327585255 0.741866759,0.548721218 C0.684064551,0.769835891 0.750191129,1.00493789 0.914762426,1.16352475 L2.27382754,2.52248796 Z" id="Fill-4"></path>
                    <path d="M5.47420289,2.51976372 L6.83155341,1.157576 C7.07799261,0.910328427 7.07799261,0.509367386 6.83163846,0.262055794 C6.58528432,0.0147228621 6.18577215,0.0146375013 5.93933295,0.261885073 L4.58206748,1.62415816 C4.46146324,1.74169999 4.39344262,1.90324531 4.39344262,2.07196094 C4.39344262,2.24067657 4.46146324,2.40224323 4.58206748,2.51976372 C4.83156856,2.75935016 5.22470181,2.75935016 5.47420289,2.51976372 Z" id="Fill-5"></path>
                </g>
            </g>
        </g>
    </g>
</svg>