<?xml version="1.0" encoding="UTF-8"?>
<svg width="46px" height="46px" viewBox="0 0 46 46" version="1.1" xmlns="http://www.w3.org/2000/svg" xmlns:xlink="http://www.w3.org/1999/xlink">
    <!-- Generator: Sketch 52.5 (67469) - http://www.bohemiancoding.com/sketch -->
    <title>优惠券</title>
    <desc>Created with Sketch.</desc>
    <defs>
        <linearGradient x1="50%" y1="0%" x2="50%" y2="100%" id="linearGradient-1">
            <stop stop-color="#0EEFC0" offset="0%"></stop>
            <stop stop-color="#06DB8C" offset="100%"></stop>
        </linearGradient>
    </defs>
    <g id="优惠券" stroke="none" stroke-width="1" fill="none" fill-rule="evenodd">
        <g id="营销中心-copy-5" transform="translate(-264.000000, -586.000000)">
            <g id="分组-4" transform="translate(224.000000, 496.000000)">
                <g id="编组-7-copy" transform="translate(24.000000, 74.000000)">
                    <g id="人群" transform="translate(16.000000, 16.000000)">
                        <circle id="椭圆形复制" fill="url(#linearGradient-1)" fill-rule="evenodd" opacity="0.100000001" cx="23" cy="23" r="23"></circle>
                        <circle id="椭圆形" stroke="url(#linearGradient-1)" stroke-width="2" cx="23" cy="23" r="20.7"></circle>
                        <g id="人事" stroke-width="1" fill-rule="evenodd" transform="translate(9.200000, 10.733333)">
                            <rect id="矩形" fill="#000000" opacity="0" x="0" y="0" width="27.6" height="27.6"></rect>
                            <path d="M16.9724001,16.1 C16.0978632,16.6750278 15.0085354,17.0314935 13.8075266,17.0314935 C12.6064546,17.0314935 11.5188749,16.6739771 10.640842,16.1 C8.98110457,16.9789938 7.82474291,18.522342 7.66666667,20.3099767 C8.24745893,20.3757327 9.28175691,20.4464619 10.7576828,20.4464619 L16.8538113,20.4464619 C18.3314852,20.4464619 19.3658463,20.3757327 19.9483234,20.3099767 C19.7902471,18.5212738 18.6339065,16.9789938 16.9724001,16.1 Z" id="路径" fill="#06DB8C" fill-rule="nonzero"></path>
                            <path d="M9.50135308,11.4956495 C9.50665358,11.7393605 9.52972378,11.9785965 9.57403942,12.2103164 C9.82216355,13.489935 10.6533424,14.5515409 11.7752233,15.1408223 C12.3618407,15.4496156 13.0194065,15.6410827 13.7283481,15.6410827 C14.437268,15.6410827 15.0965717,15.4496156 15.6831891,15.1408223 C16.8033103,14.5515409 17.6362488,13.489935 17.8826568,12.2099254 C17.9286886,11.9781621 17.9499775,11.7389043 17.955278,11.495215 C17.9570593,11.4651286 17.9641411,11.43678 17.9641411,11.4061722 C17.9641411,10.3702646 17.5760317,9.43269737 16.9556779,8.69587291 C16.1776344,7.77166533 15.0291859,7.1708055 13.7283481,7.1708055 C12.4310078,7.1708055 11.280778,7.77164361 10.5027344,8.69541673 C9.8824024,9.43224119 9.49248995,10.3702429 9.49248995,11.4061505 C9.49248995,11.4367583 9.50135308,11.4651068 9.50135308,11.4956495 Z M6.96114464,12.0780743 C7.57187771,12.0780743 8.13428467,11.8804821 8.59812057,11.5514145 C8.59617805,11.5181311 8.58845535,11.4871929 8.58845535,11.4538384 C8.58845535,10.3241445 9.01171154,9.3012418 9.68818233,8.49772545 C9.35958847,7.29561344 8.2695504,6.40413883 6.96114464,6.40413883 C5.39755806,6.40413883 4.12582329,7.67729496 4.12582329,9.24038406 C4.12582329,10.8044207 5.39755806,12.0780743 6.96114464,12.0780743 Z" id="形状" fill="#06DB8C" fill-rule="nonzero"></path>
                            <path d="M11.0758287,15.5265214 C9.85433887,14.8838552 8.94602119,13.7261842 8.67738487,12.3307678 C8.16906052,12.6182608 7.5873468,12.786881 6.96114464,12.786881 C6.13583416,12.786881 5.38017014,12.4902676 4.77332211,12.0133079 C3.62915405,12.7443824 2.82897789,14.0262562 2.7187991,15.5115261 C3.12080601,15.5661535 3.83593769,15.6250687 4.85640038,15.6250687 L9.06581783,15.6250687 C9.99739838,15.6250451 10.6583527,15.5762925 11.0758287,15.5265214 Z M19.0018557,11.550917 C19.4657153,11.8800084 20.0280986,12.0780743 20.6369602,12.0780743 C22.2024183,12.0780743 23.4742004,10.8044207 23.4742004,9.24038406 C23.4742004,7.67729496 22.2024183,6.40413883 20.6369602,6.40413883 C19.3323447,6.40413883 18.2404115,7.29608723 17.911794,8.49822292 C18.5882885,9.30173927 19.0115446,10.3241445 19.0115446,11.4538384 C19.0115446,11.4871692 19.0038219,11.5181074 19.0018557,11.550917 Z M22.8247828,12.0132842 C22.2198536,12.4911915 21.4680272,12.7868573 20.6369839,12.7868573 C20.0146431,12.7868573 19.4309869,12.6177633 18.9226151,12.3303177 C18.6540025,13.7261842 17.7456374,14.8838552 16.524195,15.5265214 C16.9416473,15.5763162 17.6026016,15.6250451 18.5303208,15.6250451 L22.7416571,15.6250451 C23.7640623,15.6250451 24.4772515,15.5661298 24.8812009,15.5115024 C24.7729646,14.0252613 23.9727885,12.7443587 22.8247828,12.0132842 Z" id="形状" fill="#06DB8C" fill-rule="nonzero"></path>
                        </g>
                    </g>
                </g>
            </g>
        </g>
    </g>
</svg>