<?xml version="1.0" encoding="UTF-8"?>
<svg width="46px" height="46px" viewBox="0 0 46 46" version="1.1" xmlns="http://www.w3.org/2000/svg" xmlns:xlink="http://www.w3.org/1999/xlink">
    <!-- Generator: Sketch 52.5 (67469) - http://www.bohemiancoding.com/sketch -->
    <title>幸运大转盘</title>
    <desc>Created with Sketch.</desc>
    <defs>
        <linearGradient x1="50%" y1="0%" x2="50%" y2="100%" id="linearGradient-1">
            <stop stop-color="#E6B6FF" offset="0%"></stop>
            <stop stop-color="#C87FFF" offset="100%"></stop>
        </linearGradient>
    </defs>
    <g id="优惠券" stroke="none" stroke-width="1" fill="none" fill-rule="evenodd">
        <g id="营销中心-copy-5" transform="translate(-264.000000, -680.000000)">
            <g id="分组-4" transform="translate(224.000000, 496.000000)">
                <g id="分组-2-copy" transform="translate(24.000000, 168.000000)">
                    <g id="编组-3" transform="translate(16.000000, 16.000000)">
                        <g id="幸运大转盘-copy">
                            <circle id="椭圆形复制-7" fill="url(#linearGradient-1)" fill-rule="evenodd" opacity="0.100000001" cx="23" cy="23" r="23"></circle>
                            <circle id="椭圆形复制-8" stroke="url(#linearGradient-1)" stroke-width="2" cx="23" cy="23" r="20.7"></circle>
                            <g id="转盘设置复制" stroke-width="1" fill-rule="evenodd" transform="translate(13.033333, 13.033333)">
                                <rect id="矩形" fill="#000000" fill-rule="nonzero" opacity="0" x="0" y="0" width="19.9333333" height="19.9333333"></rect>
                                <path d="M10.4922526,7.28033854 L9.96666667,4.71859375 L9.48001302,7.27255208 C8.95053385,7.3679362 8.44052083,7.62099609 8.03173177,8.02978516 C6.96304036,9.09847656 6.96304036,10.8309635 8.03173177,11.8996549 C9.10042318,12.9683464 10.8329102,12.9683464 11.9016016,11.8996549 C12.970293,10.8309635 12.970293,9.09847656 11.9016016,8.02978516 C11.500599,7.63072917 11.0081055,7.3815625 10.4922526,7.28033854 Z M9.96666667,0 C4.46164063,0 0,4.46164063 0,9.96666667 C0,15.4716927 4.46164063,19.9333333 9.96666667,19.9333333 C15.4716927,19.9333333 19.9333333,15.4716927 19.9333333,9.96666667 C19.9333333,4.46164063 15.4716927,0 9.96666667,0 Z M16.1335417,16.1335417 L12.2539388,12.2519922 C11.8373633,12.6666211 11.3351367,12.9469336 10.8056576,13.0890365 L12.2266862,18.3935612 C11.4947591,18.5901693 10.7394727,18.6875 9.96861328,18.6875 C9.19775391,18.6875 8.44246745,18.5882227 7.71054036,18.3935612 L9.13156901,13.0890365 C8.60208984,12.9488802 8.09986328,12.6685677 7.68328776,12.2519922 L3.79979167,16.1335417 C3.79979167,16.1335417 3.79979167,16.1335417 3.79979167,16.1335417 C2.99778646,15.3315365 2.36902995,14.3991081 1.93104167,13.3615625 C1.77336589,12.9897591 1.64294271,12.6101693 1.53977214,12.2247396 L6.84235026,10.8037109 C6.69635417,10.2547656 6.69635417,9.67662109 6.84235026,9.1296224 L1.53977214,7.70859375 C1.64294271,7.32316406 1.77336589,6.94357422 1.93104167,6.57177083 C2.37097656,5.53422526 2.99973307,4.59985026 3.79979167,3.79979167 C3.79979167,3.79979167 3.79979167,3.79979167 3.79979167,3.79979167 L7.67939453,7.67939453 C8.09597005,7.26476562 8.59819661,6.98445312 9.12767578,6.84235026 L7.70859375,1.53977214 C8.44052083,1.34511068 9.19580729,1.24583333 9.96666667,1.24583333 C10.737526,1.24583333 11.4928125,1.34511068 12.2247396,1.53977214 L10.8037109,6.84235026 C11.3331901,6.98445312 11.8354167,7.26281901 12.2519922,7.67939453 L16.1315951,3.79784505 C16.1315951,3.79784505 16.1315951,3.79784505 16.1315951,3.79784505 C16.9336003,4.59985026 17.5623568,5.53227865 18.0003451,6.56982422 C18.1580208,6.9416276 18.288444,7.32121745 18.3916146,7.70664714 L13.0870898,9.12767578 C13.2330859,9.67467448 13.2330859,10.252819 13.0870898,10.8017643 L18.3916146,12.222793 C18.288444,12.6082227 18.1580208,12.9878125 18.0003451,13.3596159 C17.5643034,14.3991081 16.9336003,15.3315365 16.1335417,16.1335417 C16.1335417,16.1335417 16.1335417,16.1335417 16.1335417,16.1335417 Z" id="形状" fill="url(#linearGradient-1)" fill-rule="nonzero"></path>
                            </g>
                        </g>
                    </g>
                </g>
            </g>
        </g>
    </g>
</svg>